# xmcd
#
# Track frame offsets:
# 150
# 8957
# 19045
# 29539
# 37424
# 47174
# 52823
# 64868
# 71873
# 77828
# 87234
# 98234
# 106113
# 115505
# 126549
# 134368
# 142523
# 155618
# 164168
# 173051
# 180394
# 190856
# 203371
# 214300
# 220883
# 229017
# 236016
# 242537
# 249814
# 256229
#
# Disc length: 3572 seconds
#
#
# Revision: 0
# Processed by: cddbd v1.5.2PL0 Copyright (c) Steve Scherf et al.
# Submitted via: FreeRIP 2.95 
#
DISCID=9e0df21e
DTITLE=SELEÇÕES DA COLEÇ~ES CANÇÕES DE VIDA - AMANHECER
DYEAR=2005
DGENRE=Gospel
TTITLE0=A PALAVRA DE DEUS E VIDA
TTITLE1=QUE SAI DA BOCA DE DEUS
TTITLE2=DA NATUREZA DIVINA
TTITLE3=ESCONDI A TUA PALAVRA NO MEU CORÇÃO
TTITLE4=MINHA PALAVRAS NA HÃO DE PASSAR
TTITLE5=PROCURA
TTITLE6=ELE NOS OUVE
TTITLE7=EU RESPONDEREI
TTITLE8=QUALQUER COISA  QUE LHE PEDIRMOS
TTITLE9=AI ESTOU EU
TTITLE10=FES DEFINHAR
TTITLE11=TRONO DA GRAÇA
TTITLE12=ORAI SEM SEM CESSAR
TTITLE13=AJUDA AS NOSSAS FRAQUESAS
TTITLE14=SE VOS ESTIVERDIS EM MIN
TTITLE15=CLAMA A MIM
TTITLE16=SIMÃO SIMÃO
TTITLE17=ORANDO
TTITLE18=QUE POR ELE SE CHEGA A DEUS
TTITLE19=EU O FAREI
TTITLE20=FÉ É O FIRME MANDAMENTO
TTITLE21=NÃO DUVIDANDO
TTITLE22=NO SOSSEGO E NA CONFIANÇA
TTITLE23=NELE CONFIAREI
TTITLE24=CONFIA NO SENHOR
TTITLE25=ANDAMOS POR FÉ
TTITLE26=PARA OS PURO
TTITLE27=SEGUNDO A VOSSA ´FE
TTITLE28=PORQUE EU SEI EM QUEM  TENHO CRIDO
TTITLE29=ESTA É A VITORIA
EXTD=
EXTT0=
EXTT1=
EXTT2=
EXTT3=
EXTT4=
EXTT5=
EXTT6=
EXTT7=
EXTT8=
EXTT9=
EXTT10=
EXTT11=
EXTT12=
EXTT13=
EXTT14=
EXTT15=
EXTT16=
EXTT17=
EXTT18=
EXTT19=
EXTT20=
EXTT21=
EXTT22=
EXTT23=
EXTT24=
EXTT25=
EXTT26=
EXTT27=
EXTT28=
EXTT29=
PLAYORDER=
